# AST/ASF file generated using VICON BodyLanguage
# -----------------------------------------------
:version 1.10
:name VICON
:units
  mass 1.0
  length 0.45
  angle deg
:documentation
   .ast/.asf automatically generated from VICON data using
   VICON BodyBuilder and BodyLanguage model FoxedUp or BRILLIANT.MOD
:root
   order TX TY TZ RX RY RZ
   axis XYZ
   position 0 0 0  
   orientation 0 0 0 
:bonedata
  begin
     id 1 
     name lhipjoint
     direction 0.710188 -0.616876 0.339259 
     length 2.5669 
     axis 0 0 0  XYZ
  end
  begin
     id 2 
     name lfemur
     direction 0.34202 -0.939693 0  
     length 7.12796  
     axis 0 0 20  XYZ
    dof rx ry rz
    limits (-160.0 20.0)
           (-70.0 70.0)
           (-60.0 70.0)
  end
  begin
     id 3 
     name ltibia
     direction 0.34202 -0.939693 0   
     length 7.58108   
     axis 0 0 20   XYZ
    dof rx
    limits (-10.0 170.0)
  end
  begin
     id 4 
     name lfoot
     direction 0.0669471 -0.183936 0.980656   
     length 2.17365   
     axis -90 7.62852e-016 20   XYZ
    dof rx rz
    limits (-45.0 90.0)
           (-70.0 20.0)
  end
  begin
     id 5 
     name ltoes
     direction 1.53508e-011 -4.21705e-011 1   
     length 1.09427   
     axis -90 7.62852e-016 20   XYZ
    dof rx
    limits (-90.0 20.0)
  end
  begin
     id 6 
     name rhipjoint
     direction -0.700191 -0.625589 0.34405   
     length 2.53115  
     axis 0 0 0  XYZ 
  end
  begin
     id 7 
     name rfemur
     direction -0.34202 -0.939693 0   
     length 7.33006   
     axis 0 0 -20   XYZ
    dof rx ry rz
    limits (-160.0 20.0)
           (-70.0 70.0)
           (-70.0 60.0)
  end
  begin
     id 8 
     name rtibia
     direction -0.34202 -0.939693 0   
     length 7.64926   
     axis 0 0 -20   XYZ
    dof rx
    limits (-10.0 170.0)
 end
 begin
     id 9 
     name rfoot
     direction -0.0688927 -0.189281 0.979503   
     length 2.20493  
     axis -90 -7.62852e-016 -20   XYZ
    dof rx rz
    limits (-45.0 90.0)
           (-20.0 70.0)
  end
  begin
     id 10 
     name rtoes
     direction -1.53567e-011 -4.21933e-011 1   
     length 1.10919   
     axis -90 -7.62852e-016 -20   XYZ
    dof rx
    limits (-90.0 20.0)
  end
  begin
     id 11 
     name lowerback
     direction -0.0167868 0.989873 -0.140959   
     length 2.14596   
     axis 0 0 0   XYZ
    dof rx ry rz
    limits (-20.0 45.0)
           (-30.0 30.0)
           (-30.0 30.0)
  end
  begin
     id 12 
     name upperback
     direction 0.0129109 0.998033 0.0613525   
     length 2.10457   
     axis 0 0 0   XYZ
    dof rx ry rz
    limits (-20.0 45.0)
           (-30.0 30.0)
           (-30.0 30.0)
  end
  begin
     id 13 
     name thorax
     direction 0.0177047 0.991119 0.131797   
     length 2.17652   
     axis 0 0 0   XYZ
    dof rx ry rz
    limits (-20.0 45.0)
           (-30.0 30.0)
           (-30.0 30.0)
  end
  begin
     id 14 
     name lowerneck
     direction -0.0336893 0.997548 0.0613464   
     length 1.8912   
     axis 0 0 0   XYZ
    dof rx ry rz
    limits (-20.0 45.0)
           (-30.0 30.0)
           (-30.0 30.0)
  end
  begin
     id 15 
     name upperneck
     direction 0.0435909 0.997179 -0.0611028   
     length 1.8829   
     axis 0 0 0   XYZ
    dof rx ry rz
    limits (-20.0 45.0)
           (-30.0 30.0)
           (-30.0 30.0)
  end
  begin
     id 16
     name head
     direction 0.0175076 0.999444 -0.0283782  
     length 1.93197  
     axis 0 0 0   XYZ
    dof rx ry rz
    limits (-20.0 45.0)
           (-30.0 30.0)
           (-30.0 30.0)
  end
  begin
     id 17 
     name lclavicle
     direction 0.919164 0.389875 0.0559876  
     length 3.60004  
     axis 0 0 0   XYZ
    dof ry rz
    limits (-20.0 10.0)
           (0.0 20.0)
  end
  begin
     id 18 
     name lhumerus
     direction 1 -4.48958e-011 6.89191e-027   
     length 5.43301   
     axis 180 -30 -90   XYZ
    dof rx ry rz
    limits (-60.0 90.0)
           (-90.0 90.0)
           (-90.0 90.0)
  end
  begin
     id 19
     name lradius
     direction 1 -4.4897e-011 3.24727e-027   
     length 3.15936   
     axis 180 -30 -90   XYZ
    dof rx
    limits (-10.0 170.0)
  end
  begin
     id 20
     name lwrist
     direction 1 -4.4897e-011 9.00228e-027   
     length 1.57968   
     axis -6.29373e-015 90 90   XYZ
    dof ry
    limits (-180.0 0.0)
 end
  begin
     id 21 
     name lhand
     direction 1 -4.48968e-011 1.80042e-026   
     length 0.712827   
     axis -1.14882e-014 90 90   XYZ
    dof rx rz
    limits (-90.0 90.0)
           (-45.0 45.0)
  end
  begin
     id 22 
     name lfingers
     direction 1 -4.49019e-011 3.60267e-026   
     length 0.574699   
     axis -2.29769e-014 90 90   XYZ
    dof rx
    limits (0.0 90.0)
  end
  begin
     id 23
     name lthumb
     direction 0.707107 -6.3498e-011 0.707107   
     length 0.825157   
     axis -90 45 5.37419e-014   XYZ
    dof rx rz
    limits (-45.0 45.0)
           (-45.0 45.0)
  end
  begin
     id 24 
     name rclavicle
     direction -0.890334 0.455305 -0.00132111   
     length 3.51494  
     axis 0 0 0   XYZ 
    dof ry rz
    limits (-10.0 20.0)
           (-20.0 0.0)
  end
  begin
     id 25 
     name rhumerus
     direction -1 -4.48967e-011 5.07175e-028  
     length 5.34194   
     axis 180 30 90   XYZ
    dof rx ry rz
    limits (-90.0 60.0)
           (-90.0 90.0)
           (-90.0 90.0)
  end
  begin
     id 26 
     name rradius
     direction -1 -4.48955e-011 3.30467e-027   
     length 3.19351   
     axis 180 30 90   XYZ
    dof rx
    limits (-10.0 170.0)
  end
  begin
     id 27 
     name rwrist
     direction -1 -4.48968e-011 9.00208e-027   
     length 1.59676   
     axis -6.29373e-015 -90 -90   XYZ
    dof ry
    limits (-180.0 0.0)
  end
  begin
     id 28
     name rhand
     direction -1 -4.49e-011 1.80099e-026   
     length 0.743862   
     axis -1.14882e-014 -90 -90   XYZ
    dof rx rz
    limits (-90.0 90.0)
           (-45.0 45.0)
  end
  begin
     id 29
     name rfingers
     direction -1 -4.49009e-011 3.6023e-026   
     length 0.599721   
     axis -2.29769e-014 -90 -90   XYZ
    dof rx
    limits (0.0 90.0)
  end
  begin
     id 30
     name rthumb
     direction -0.707107 -6.35025e-011 0.707107   
     length 0.861083   
     axis -90 -45 -5.37419e-014   XYZ
    dof rx rz
    limits (-45.0 45.0)
           (-45.0 45.0)
  end
:hierarchy
  begin
    root lhipjoint rhipjoint lowerback
    lhipjoint lfemur
    lfemur ltibia
    ltibia lfoot
    lfoot ltoes
    rhipjoint rfemur
    rfemur rtibia
    rtibia rfoot
    rfoot rtoes
    lowerback upperback
    upperback thorax
    thorax lowerneck lclavicle rclavicle
    lowerneck upperneck
    upperneck head
    lclavicle lhumerus
    lhumerus lradius
    lradius lwrist
    lwrist lhand lthumb
    lhand lfingers
    rclavicle rhumerus
    rhumerus rradius
    rradius rwrist
    rwrist rhand rthumb
    rhand rfingers
  end

#!OML:ASF H:\Martial Arts Walks\Project 1\Capture day 1\Session 1\male.ASF
:FULLY-SPECIFIED
:DEGREES
231
root -1.27308 14.1896 -20.5851 8.15239 28.3814 10.4348
lowerback 12.8048 3.48261 -15.0595
upperback -1.39402 2.13318 -1.56131
thorax -9.3271 1.75219 6.30946
lowerneck 2.49914 -12.171 -12.9576
upperneck 2.50625 -16.843 11.6
head 2.42235 -8.473 4.99122
rclavicle 4.48079e-014 -2.36554e-014
rhumerus 4.87197 7.6508 -58.1559
rradius 32.4363
rwrist 19.0491
rhand -7.26883 -14.0938
rfingers 7.12502
rthumb 18.6123 -43.2234
lclavicle 4.48079e-014 -2.36554e-014
lhumerus -72.3397 -19.3439 104.311
lradius 103.119
lwrist 27.6399
lhand 10.0244 35.5552
lfingers 7.12502
lthumb 35.1495 62.0763
rfemur -62.9422 -26.5002 7.20242
rtibia 73.3763
rfoot -9.73003 16.0187
rtoes 15.9032
lfemur 9.97895 5.80081 -10.4062
ltibia 35.1901
lfoot -22.0096 29.8325
ltoes -28.5666
232
root -1.27322 14.184 -20.5732 8.1593 28.3987 10.4331
lowerback 12.7774 3.48115 -15.0316
upperback -1.39537 2.14103 -1.55681
thorax -9.31325 1.75388 6.29806
lowerneck 2.50122 -12.1736 -12.9558
upperneck 2.50917 -16.8459 11.5828
head 2.42157 -8.47458 4.9858
rclavicle 5.20111e-015 8.42583e-015
rhumerus 4.87196 7.62894 -58.1189
rradius 32.3883
rwrist 19.0373
rhand -7.25217 -14.1249
rfingers 7.12502
rthumb 18.6283 -43.253
lclavicle 5.20111e-015 8.42583e-015
lhumerus -72.3474 -19.3393 104.307
lradius 103.117
lwrist 27.6186
lhand 10.048 35.5283
lfingers 7.12502
lthumb 35.1719 62.0441
rfemur -62.9839 -26.5841 7.24007
rtibia 73.4938
rfoot -9.81857 16.0908
rtoes 15.9461
lfemur 10.0257 5.79824 -10.3627
ltibia 35.1543
lfoot -21.9944 29.8418
ltoes -28.5487
233
root -1.27303 14.1784 -20.5618 8.15741 28.4084 10.4376
lowerback 12.7622 3.4822 -15.0081
upperback -1.39401 2.14943 -1.5528
thorax -9.30376 1.75618 6.28816
lowerneck 2.49834 -12.1705 -12.9552
upperneck 2.5171 -16.8409 11.5619
head 2.42187 -8.47211 4.97959
rclavicle -1.87626e-014 -5.02428e-014
rhumerus 4.87281 7.61806 -58.0816
rradius 32.3511
rwrist 19.0231
rhand -7.18327 -14.1638
rfingers 7.12502
rthumb 18.6946 -43.2855
lclavicle -1.87626e-014 -5.02428e-014
lhumerus -72.35 -19.324 104.299
lradius 103.115
lwrist 27.5899
lhand 10.0823 35.4807
lfingers 7.12502
lthumb 35.2044 61.9888
rfemur -63.0134 -26.6638 7.2655
rtibia 73.6064
rfoot -9.90504 16.1668
rtoes 15.9898
lfemur 10.0886 5.77961 -10.3395
ltibia 35.114
lfoot -21.9746 29.8691
ltoes -28.5172
234
root -1.27276 14.1731 -20.551 8.14349 28.4118 10.4483
lowerback 12.7657 3.48559 -14.9917
upperback -1.38912 2.15667 -1.54896
thorax -9.30117 1.75851 6.28172
lowerneck 2.48686 -12.1643 -12.9537
upperneck 2.53262 -16.8311 11.5377
head 2.42485 -8.46694 4.97185
rclavicle 2.04026e-014 -7.35503e-015
rhumerus 4.87784 7.62573 -58.0422
rradius 32.3231
rwrist 19.0045
rhand -7.07384 -14.2085
rfingers 7.12502
rthumb 18.7998 -43.32
lclavicle 2.04026e-014 -7.35503e-015
lhumerus -72.3464 -19.297 104.286
lradius 103.115
lwrist 27.5611
lhand 10.1187 35.4242
lfingers 7.12502
lthumb 35.239 61.9242
rfemur -63.0256 -26.7363 7.27587
rtibia 73.7136
rfoot -9.98526 16.2444
rtoes 16.0485
lfemur 10.1684 5.74462 -10.3357
ltibia 35.0704
lfoot -21.9413 29.9182
ltoes -28.4875
235
root -1.27255 14.1681 -20.5409 8.12055 28.4083 10.4579
lowerback 12.7808 3.49227 -14.979
upperback -1.38333 2.16572 -1.544
thorax -9.30491 1.76225 6.27782
lowerneck 2.4735 -12.1567 -12.9483
upperneck 2.55131 -16.8193 11.5128
head 2.42846 -8.46071 4.96328
rclavicle 2.15448e-014 -1.90088e-014
rhumerus 4.88338 7.64937 -57.9979
rradius 32.3019
rwrist 18.9884
rhand -6.94572 -14.2524
rfingers 7.12502
rthumb 18.923 -43.352
lclavicle 2.15448e-014 -1.90088e-014
lhumerus -72.3383 -19.2636 104.272
lradius 103.116
lwrist 27.5369
lhand 10.1503 35.382
lfingers 7.12502
lthumb 35.2689 61.8748
rfemur -63.0283 -26.7961 7.2819
rtibia 73.8139
rfoot -10.0589 16.3174
rtoes 16.1059
lfemur 10.2571 5.69931 -10.3413
ltibia 35.0268
lfoot -21.9074 29.9753
ltoes -28.4592
236
root -1.27253 14.1636 -20.5314 8.08985 28.4021 10.4644
lowerback 12.8087 3.50227 -14.9671
upperback -1.37798 2.17657 -1.53932
thorax -9.31706 1.76742 6.27323
lowerneck 2.45893 -12.1511 -12.9326
upperneck 2.57173 -16.8098 11.4857
head 2.43201 -8.45552 4.95234
rclavicle -5.28643e-015 1.74309e-014
rhumerus 4.88377 7.67952 -57.952
rradius 32.2869
rwrist 18.9815
rhand -6.81931 -14.2926
rfingers 7.12502
rthumb 19.0446 -43.3803
lclavicle -5.28643e-015 1.74309e-014
lhumerus -72.3303 -19.2322 104.263
lradius 103.118
lwrist 27.5189
lhand 10.1725 35.3444
lfingers 7.12502
lthumb 35.2899 61.8322
rfemur -63.0211 -26.8458 7.28619
rtibia 73.9062
rfoot -10.125 16.3837
rtoes 16.1658
lfemur 10.35 5.64643 -10.3506
ltibia 34.9843
lfoot -21.873 30.0352
ltoes -28.4395
237
root -1.27231 14.1596 -20.5226 8.05259 28.3828 10.4553
lowerback 12.8339 3.5165 -14.9464
upperback -1.37223 2.19525 -1.53142
thorax -9.3286 1.7759 6.26555
lowerneck 2.44219 -12.147 -12.915
upperneck 2.59287 -16.8025 11.4649
head 2.43681 -8.45131 4.94265
rclavicle 6.89674e-014 -7.29043e-014
rhumerus 4.88369 7.69667 -57.9083
rradius 32.2745
rwrist 18.9957
rhand -6.71077 -14.3199
rfingers 7.12502
rthumb 19.149 -43.3972
lclavicle 6.89674e-014 -7.29043e-014
lhumerus -72.3181 -19.2022 104.26
lradius 103.12
lwrist 27.5098
lhand 10.168 35.2957
lfingers 7.12502
lthumb 35.2856 61.7845
rfemur -63.0149 -26.8739 7.30492
rtibia 73.9885
rfoot -10.1839 16.4398
rtoes 16.2141
lfemur 10.4438 5.59981 -10.3528
ltibia 34.9436
lfoot -21.8518 30.0884
ltoes -28.4174
238
root -1.27214 14.1564 -20.514 8.01519 28.3574 10.429
lowerback 12.8532 3.53184 -14.9175
upperback -1.37146 2.21745 -1.52141
thorax -9.34286 1.78614 6.25498
lowerneck 2.42823 -12.1438 -12.8933
upperneck 2.61738 -16.7973 11.452
head 2.44276 -8.44806 4.93461
rclavicle -2.75985e-014 2.1096e-014
rhumerus 4.87488 7.69711 -57.8756
rradius 32.2633
rwrist 19.0322
rhand -6.62713 -14.3316
rfingers 7.12502
rthumb 19.2294 -43.4009
lclavicle -2.75985e-014 2.1096e-014
lhumerus -72.313 -19.1755 104.265
lradius 103.123
lwrist 27.5107
lhand 10.1422 35.2578
lfingers 7.12502
lthumb 35.2612 61.7525
rfemur -63.0143 -26.8843 7.34307
rtibia 74.0615
rfoot -10.2417 16.4803
rtoes 16.2435
lfemur 10.5299 5.56281 -10.3397
ltibia 34.9034
lfoot -21.8363 30.1335
ltoes -28.3973
